<!--?xml version="1.0" encoding="utf-8"?-->
<!-- Generator: Adobe Illustrator 16.0.0, SVG Export Plug-In . SVG Version: 6.00 Build 0)  -->

<svg version="1.1" id="Logo" xmlns="http://www.w3.org/2000/svg" xmlns:xlink="http://www.w3.org/1999/xlink" x="0px" y="0px" width="959px" height="833px" viewBox="-98.5 -69 959 833" enable-background="new -98.5 -69 959 833" xml:space="preserve">
<path id="W" fill="none" stroke="#fff" stroke-width="9" stroke-miterlimit="10" d="M-19.667,677
	c0,0,2.165-580.938,4.485-604.986c1.833-19,20.657-17.172,39.618-17.311l122.009,0.281c0,0,24.555-1.447,24.555,24.016
	l-0.667,119.333c0,0,0.667,26,16,3.333l87.333-116c0,0,28.833-51.667,61.333-2.667l89.334,118c0,0,19.332,29.333,19.332-8V67.667
	c0,0,0-14.109,18-13.721l148-0.008c0,0,22.832-3.438,22.668,15.062v602c0,0,3.332,28-20,6l-292-314.46c0,0-8.667-14.874-22.667,0.46
	l-294,315.334C3.667,678.334-19.667,700.333-19.667,677z" class="cuXJjQfB_0"></path>
<path id="links" fill="none" stroke="#fff" stroke-width="9" stroke-linecap="round" stroke-miterlimit="10" d="M-5.07,57.106
	l76.904-45.773c0,0,11.667-4.805,24.667-4.795h146.75c0,0,19.75-1.288,20,25.462l0.25,63" class="cuXJjQfB_1"></path>
<path id="midden" fill="none" stroke="#fff" stroke-width="9" stroke-linecap="round" stroke-miterlimit="10" d="M291.992,66.055
	l88.314-58.264c0,0,14.811-10.129,24.613,0.694l36.654,47.849" class="cuXJjQfB_2"></path>
<path id="rechts" fill="none" stroke="#fff" stroke-width="9" stroke-linecap="round" stroke-miterlimit="10" d="M448,57.764
	L549.5-0.5c0,0,10.5-4.5,20-5.5H703c0,0,19.5-2.5,20,15.5L733,623c0,0-1,13-13.5,20l-88,40.5" class="cuXJjQfB_3"></path>
<path id="onder" fill="none" stroke="#fff" stroke-width="9" stroke-linecap="round" stroke-miterlimit="10" d="M336.469,382.351
	L96.802,640.018c0,0-6.785,4.652-15.694,8.477L-5.07,684.896" class="cuXJjQfB_4"></path>
<style>.cuXJjQfB_0{stroke-dasharray:3263 3265;stroke-dashoffset:3264;animation:cuXJjQfB_draw 2066ms linear 0ms forwards;}.cuXJjQfB_1{stroke-dasharray:361 363;stroke-dashoffset:362;animation:cuXJjQfB_draw 2066ms linear 258ms forwards;}.cuXJjQfB_2{stroke-dasharray:193 195;stroke-dashoffset:194;animation:cuXJjQfB_draw 2066ms linear 516ms forwards;}.cuXJjQfB_3{stroke-dasharray:1036 1038;stroke-dashoffset:1037;animation:cuXJjQfB_draw 2066ms linear 775ms forwards;}.cuXJjQfB_4{stroke-dasharray:464 466;stroke-dashoffset:465;animation:cuXJjQfB_draw 2066ms linear 1033ms forwards;}@keyframes cuXJjQfB_draw{100%{stroke-dashoffset:0;}}@keyframes cuXJjQfB_fade{0%{stroke-opacity:1;}94.52054794520548%{stroke-opacity:1;}100%{stroke-opacity:0;}}</style></svg>
